# xmcd
#
# Track frame offsets:
#	150
#	26907
#	56288
#	81567
#	111345
#	138236
#	164623
#	193532
#	221559
#	246825
#	276420
#	303490
#	330582
#
# Disc length: 4731 seconds
#
# Revision: 1
# Processed by: cddbd v1.5PL3 Copyright (c) Steve Scherf et al.
# Submitted via: audiograbber 1.81.02
#
DISCID=c412790d
DTITLE=Arianna Huffington - Pigs at the Trough 4of5
DYEAR=2003
DGENRE=Speech
TTITLE0=Disk4Track01
TTITLE1=Disk4Track02
TTITLE2=Disk4Track03
TTITLE3=Disk4Track04
TTITLE4=Disk4Track05
TTITLE5=Disk4Track06
TTITLE6=Disk4Track07
TTITLE7=Disk4Track08
TTITLE8=Disk4Track09
TTITLE9=Disk4Track010
TTITLE10=Disk4Track011
TTITLE11=Disk4Track012
TTITLE12=Disk4Track013
EXTD=
EXTT0=
EXTT1=
EXTT2=
EXTT3=
EXTT4=
EXTT5=
EXTT6=
EXTT7=
EXTT8=
EXTT9=
EXTT10=
EXTT11=
EXTT12=
PLAYORDER=
